<?xml version="1.0" standalone="no"?>
<!DOCTYPE svg PUBLIC "-//W3C//DTD SVG 20010904//EN"
 "http://www.w3.org/TR/2001/REC-SVG-20010904/DTD/svg10.dtd">
<svg version="1.0" xmlns="http://www.w3.org/2000/svg"
 width="498.000000pt" height="406.000000pt" viewBox="0 0 498.000000 406.000000"
 preserveAspectRatio="xMidYMid meet">

<g transform="translate(0.000000,406.000000) scale(0.100000,-0.100000)"
fill="#000000" stroke="none">
<path d="M2360 3574 c-371 -33 -685 -177 -940 -433 -215 -215 -345 -453 -412
-752 -20 -91 -23 -131 -23 -314 0 -234 10 -300 70 -483 45 -133 99 -244 176
-362 83 -127 280 -324 409 -409 506 -333 1126 -331 1635 6 119 79 293 249 376
368 320 455 368 1059 123 1548 -219 439 -612 732 -1084 811 -103 17 -258 26
-330 20z m357 -174 c95 -20 252 -74 338 -118 100 -50 232 -149 331 -247 350
-349 481 -853 347 -1338 -22 -78 -27 -66 -8 22 37 179 3 388 -91 560 -270 492
-967 756 -1636 621 -289 -59 -538 -185 -734 -372 l-93 -90 15 51 c65 222 224
463 404 615 207 175 458 286 715 316 102 12 306 2 412 -20z m-302 -590 c209
-24 424 -84 576 -160 254 -128 463 -332 560 -546 119 -262 91 -577 -72 -816
-21 -32 -36 -58 -32 -58 17 0 150 174 190 248 52 94 56 88 7 -11 -182 -363
-514 -624 -917 -719 -126 -29 -400 -32 -527 -4 -566 122 -982 567 -1066 1140
-19 132 -15 317 11 446 l17 85 62 54 c220 190 517 307 876 344 76 8 229 6 315
-3z m1286 -1207 c-12 -20 -14 -14 -5 12 4 9 9 14 11 11 3 -2 0 -13 -6 -23z"/>
<path d="M1300 2401 c0 -5 17 -11 38 -15 70 -11 66 2 72 -293 6 -301 8 -312
77 -374 60 -54 127 -73 253 -73 74 0 120 6 155 18 53 19 128 74 146 107 10 19
9 20 -18 5 -43 -22 -145 -46 -194 -46 -54 0 -110 27 -126 60 -9 18 -13 98 -13
287 0 259 0 262 22 277 12 9 31 16 41 16 15 0 16 3 7 20 -10 19 -21 20 -235
20 -124 0 -225 -4 -225 -9z"/>
<path d="M1892 2401 c-11 -7 -10 -10 3 -15 9 -3 25 -6 34 -6 33 0 51 -33 51
-93 0 -52 2 -57 23 -57 12 0 32 -3 45 -6 20 -6 22 -3 22 27 0 89 38 139 105
139 14 0 25 5 25 10 0 12 -289 13 -308 1z"/>
<path d="M2605 2215 c-16 -8 -40 -22 -52 -31 -22 -16 -23 -16 -23 10 l0 26
-95 0 c-52 0 -95 -2 -95 -5 0 -2 11 -15 25 -29 25 -25 25 -28 25 -181 0 -156
-7 -195 -35 -195 -8 0 -15 -4 -15 -10 0 -11 222 -14 233 -3 4 3 -3 11 -16 17
-21 11 -22 18 -25 158 l-3 146 32 26 c37 32 63 33 83 4 13 -18 16 -52 16 -161
0 -138 -8 -177 -35 -177 -8 0 -15 -4 -15 -10 0 -6 47 -10 120 -10 119 0 141 6
98 25 -22 10 -23 15 -26 156 -2 140 -2 146 20 166 33 31 71 38 92 18 23 -24
24 -306 0 -329 -8 -9 -20 -16 -25 -16 -5 0 -9 -4 -9 -10 0 -6 36 -10 89 -10
l90 0 -30 58 c-17 32 -33 77 -36 100 -7 54 14 156 39 188 26 32 20 53 -22 76
-51 28 -119 20 -177 -21 -45 -32 -45 -32 -60 -12 -33 48 -109 64 -168 36z"/>
<path d="M3150 2190 c-102 -54 -145 -174 -105 -291 29 -83 92 -129 180 -129
63 0 105 20 148 70 43 51 49 75 10 38 -55 -50 -85 -58 -137 -33 -37 18 -71 71
-81 128 l-7 37 126 0 c126 0 126 0 126 24 0 61 -45 132 -102 162 -38 20 -116
17 -158 -6z m107 -8 c19 -12 43 -78 43 -117 l0 -35 -71 0 -72 0 6 56 c8 78 52
123 94 96z"/>
<path d="M1931 2164 c-25 -21 -31 -33 -31 -66 0 -21 5 -49 11 -61 10 -18 9
-23 -7 -32 -43 -23 -114 -103 -114 -127 0 -66 84 -111 164 -88 25 7 51 19 57
26 16 20 35 17 70 -8 47 -35 104 -31 140 10 34 38 39 65 6 34 -13 -12 -34 -22
-46 -22 -21 0 -91 35 -91 46 0 15 96 145 111 149 38 12 17 25 -41 25 -64 0
-69 -4 -44 -31 13 -15 13 -21 1 -50 -8 -19 -22 -41 -32 -49 -16 -13 -20 -12
-42 15 -31 39 -56 85 -45 85 5 0 27 16 50 36 51 43 56 81 16 113 -38 30 -94
28 -133 -5z m107 -6 c22 -22 14 -65 -19 -92 -17 -14 -34 -26 -39 -26 -9 0 -30
54 -30 78 0 40 61 67 88 40z m-63 -230 c52 -79 51 -74 16 -92 -43 -23 -78 -20
-106 9 -36 35 -33 79 6 116 17 16 34 29 38 29 3 0 24 -28 46 -62z"/>
<path d="M2001 2114 c0 -11 3 -14 6 -6 3 7 2 16 -1 19 -3 4 -6 -2 -5 -13z"/>
<path d="M2062 1985 c0 -16 2 -22 5 -12 2 9 2 23 0 30 -3 6 -5 -1 -5 -18z"/>
<path d="M3221 1563 c-17 -11 -21 -23 -19 -51 3 -31 10 -40 48 -62 53 -31 61
-63 18 -68 -26 -3 -34 3 -63 43 -13 19 -14 17 -15 -20 l0 -40 56 0 c47 0 59 4
75 24 33 40 22 72 -36 103 -56 30 -67 61 -25 66 17 3 31 -4 47 -25 l23 -28 0
35 c0 34 -1 35 -44 37 -26 1 -52 -4 -65 -14z"/>
<path d="M1530 1560 c0 -5 7 -10 15 -10 34 0 32 -150 -2 -176 -16 -12 -13 -13
27 -13 40 0 43 1 28 13 -14 10 -18 28 -18 77 l1 64 38 -80 38 -80 27 60 c57
131 55 129 55 46 1 -59 -2 -76 -16 -87 -16 -12 -11 -13 35 -14 28 0 52 5 52
10 0 6 -4 10 -10 10 -6 0 -10 35 -10 85 0 50 4 85 10 85 6 0 10 5 10 10 0 6
-16 10 -36 10 -34 0 -36 -3 -66 -66 -17 -36 -34 -62 -38 -57 -4 4 -18 34 -31
65 -24 57 -24 58 -66 58 -24 0 -43 -4 -43 -10z"/>
<path d="M1891 1493 c-18 -43 -41 -90 -52 -105 l-20 -28 38 0 c32 1 35 3 23
13 -9 7 -14 20 -12 30 5 24 77 24 87 0 3 -10 1 -19 -4 -21 -27 -9 -6 -22 35
-22 25 0 44 3 42 8 -2 4 -20 42 -40 84 -20 43 -39 87 -43 98 -11 34 -21 23
-54 -57z m36 -28 c10 -24 9 -25 -18 -25 -27 0 -28 1 -17 25 14 31 20 31 35 0z"/>
<path d="M2050 1533 c0 -37 1 -37 13 -13 7 14 23 26 35 28 21 3 22 0 22 -72 0
-53 -4 -79 -15 -90 -23 -23 -19 -26 35 -26 54 0 58 3 35 26 -11 11 -15 37 -15
90 0 72 1 75 22 72 12 -2 28 -14 35 -28 12 -24 13 -24 13 13 l0 37 -90 0 -90
0 0 -37z"/>
<path d="M2250 1564 c0 -3 7 -12 15 -20 10 -11 15 -36 15 -79 0 -43 -5 -68
-15 -79 -8 -8 -15 -17 -15 -20 0 -3 38 -6 85 -6 83 0 86 1 95 26 15 40 11 51
-9 25 -13 -17 -29 -24 -57 -25 -38 -1 -39 0 -39 34 0 42 23 48 42 10 12 -23
13 -20 12 35 0 46 -2 55 -9 38 -6 -14 -18 -23 -30 -23 -18 0 -21 5 -18 33 3
27 7 33 31 35 17 2 37 -4 48 -14 18 -16 19 -16 19 9 l0 27 -85 0 c-47 0 -85
-3 -85 -6z"/>
<path d="M2440 1561 c0 -5 7 -11 15 -15 12 -4 15 -23 15 -81 0 -58 -3 -77 -15
-81 -31 -12 -13 -24 35 -24 45 0 67 13 39 22 -6 2 -9 19 -7 38 l3 35 33 -47
33 -48 114 0 c63 0 115 4 115 9 0 5 -5 11 -11 13 -5 2 -7 11 -4 21 10 24 82
24 87 0 2 -10 -3 -23 -12 -30 -12 -10 -5 -12 38 -13 30 0 52 3 50 8 -2 4 -25
52 -52 107 l-48 100 -24 -50 c-13 -27 -32 -71 -43 -98 -17 -40 -24 -48 -43
-45 -22 3 -23 8 -26 86 -2 68 0 82 13 82 8 0 15 5 15 10 0 6 -26 10 -57 10
-50 -1 -56 -2 -40 -14 14 -11 17 -29 17 -95 0 -74 -2 -81 -20 -81 -11 0 -30
15 -44 36 l-25 37 21 27 c28 38 17 67 -30 80 -46 12 -142 13 -142 1z m128 -28
c15 -29 -4 -62 -35 -63 -8 0 -13 15 -13 40 0 33 3 40 20 40 10 0 23 -8 28 -17z
m295 -65 c7 -27 4 -31 -21 -26 -16 2 -18 7 -11 26 11 28 25 28 32 0z"/>
<path d="M2980 1561 c0 -5 7 -11 15 -15 12 -4 15 -23 15 -81 0 -58 -3 -77 -15
-81 -37 -15 -8 -24 75 -24 65 0 90 3 90 13 0 6 3 23 6 37 l6 25 -19 -23 c-10
-13 -35 -25 -56 -29 l-37 -6 0 83 c0 67 3 85 18 96 15 12 9 13 -40 14 -32 0
-58 -4 -58 -9z"/>
<path d="M4172 1955 c0 -16 2 -22 5 -12 2 9 2 23 0 30 -3 6 -5 -1 -5 -18z"/>
<path d="M762 1880 c0 -19 2 -27 5 -17 2 9 2 25 0 35 -3 9 -5 1 -5 -18z"/>
<path d="M4162 1860 c0 -14 2 -19 5 -12 2 6 2 18 0 25 -3 6 -5 1 -5 -13z"/>
<path d="M772 1810 c0 -14 2 -19 5 -12 2 6 2 18 0 25 -3 6 -5 1 -5 -13z"/>
<path d="M4152 1790 c0 -14 2 -19 5 -12 2 6 2 18 0 25 -3 6 -5 1 -5 -13z"/>
<path d="M782 1760 c0 -14 4 -36 8 -50 6 -20 8 -21 8 -5 0 11 -4 34 -8 50 -7
27 -8 27 -8 5z"/>
<path d="M4131 1704 c-6 -32 -9 -59 -7 -61 2 -3 10 21 16 52 6 31 10 59 7 61
-2 2 -9 -21 -16 -52z"/>
<path d="M801 1664 c0 -11 3 -14 6 -6 3 7 2 16 -1 19 -3 4 -6 -2 -5 -13z"/>
<path d="M810 1631 c0 -25 59 -189 103 -283 90 -192 197 -341 356 -498 324
-319 744 -490 1201 -490 602 0 1159 318 1471 840 62 103 157 315 147 326 -3 2
-15 -24 -28 -58 -47 -131 -162 -331 -259 -453 -58 -73 -205 -216 -286 -279
-397 -309 -904 -427 -1395 -326 -489 102 -907 412 -1153 855 -48 86 -80 162
-123 285 -18 52 -33 89 -34 81z"/>
<path d="M4102 1588 c-6 -23 -9 -44 -7 -46 2 -2 9 15 15 38 6 23 9 44 7 46 -2
3 -9 -14 -15 -38z"/>
</g>
</svg>
